HIERARCHY
ROOT hip
{
  OFFSET 0.00112043 5.09927 -9.65472
  CHANNELS 6 Xposition Yposition Zposition Zrotation Xrotation Yrotation
  JOINT abdomen
  {
    OFFSET 0 -1.186 -1.5018
    CHANNELS 3 Zrotation Xrotation Yrotation
    JOINT abdomen2
    {
      OFFSET 0 9.964 0.2134
      CHANNELS 3 Zrotation Xrotation Yrotation
      JOINT chest
      {
        OFFSET 0 13.134 -3.2573
        CHANNELS 3 Zrotation Xrotation Yrotation
        JOINT neck
        {
          OFFSET 0 20.686 -1.6905
          CHANNELS 3 Zrotation Xrotation Yrotation
          JOINT head
          {
            OFFSET 0 7.238 -0.1237
            CHANNELS 3 Zrotation Xrotation Yrotation
            End Site
            {
              OFFSET 0 0 0
            }
          }
        }
        JOINT lCollar
        {
          OFFSET 1.7069 20.075 5.0056
          CHANNELS 3 Zrotation Xrotation Yrotation
          JOINT lShldr
          {
            OFFSET 13.6458 -0.047 -4.849
            CHANNELS 3 Zrotation Xrotation Yrotation
            JOINT lForeArm
            {
              OFFSET 28.3255 -0.9759 2.2888
              CHANNELS 3 Zrotation Xrotation Yrotation
              JOINT lHand
              {
                OFFSET 22.1583 -0.53 10.8316
                CHANNELS 3 Zrotation Xrotation Yrotation
                JOINT lThumb1
                {
                  OFFSET 0.786 0.112 2.5817
                  CHANNELS 3 Zrotation Xrotation Yrotation
                  JOINT lThumb2
                  {
                    OFFSET 0.3601 -0.878 4.2331
                    CHANNELS 3 Zrotation Xrotation Yrotation
                    JOINT lThumb2_End
                    {
                      OFFSET 1.8127 -1.216 2.2227
                      CHANNELS 3 Zrotation Xrotation Yrotation
                      End Site
                      {
                        OFFSET 0.0181 -0.0122 0.0222
                      }
                    }
                  }
                }
                JOINT lCarpal1
                {
                  OFFSET 0.9571 1.114 1.7695
                  CHANNELS 3 Zrotation Xrotation Yrotation
                  JOINT lIndex1
                  {
                    OFFSET 4.1246 0.487 4.1451
                    CHANNELS 3 Zrotation Xrotation Yrotation
                    JOINT lIndex2
                    {
                      OFFSET 3.4052 -1.454 2.7682
                      CHANNELS 3 Zrotation Xrotation Yrotation
                      JOINT lIndex2_End
                      {
                        OFFSET 1.4531 -1.795 1.2713
                        CHANNELS 3 Zrotation Xrotation Yrotation
                        End Site
                        {
                          OFFSET 0.0145 -0.0179 0.0127
                        }
                      }
                    }
                  }
                  JOINT lMid1
                  {
                    OFFSET 5.6954 0.21 2.1184
                    CHANNELS 3 Zrotation Xrotation Yrotation
                    JOINT lMid2
                    {
                      OFFSET 3.9766 -1.54 2.3863
                      CHANNELS 3 Zrotation Xrotation Yrotation
                      JOINT lMid2_End
                      {
                        OFFSET 1.4042 -1.926 1.125
                        CHANNELS 3 Zrotation Xrotation Yrotation
                        End Site
                        {
                          OFFSET 0.014 -0.0193 0.0113
                        }
                      }
                    }
                  }
                }
                JOINT lCarpal2
                {
                  OFFSET 2.0956 0.66 -0.3894
                  CHANNELS 3 Zrotation Xrotation Yrotation
                  JOINT lRing1
                  {
                    OFFSET 5.0395 -0.09 2.4971
                    CHANNELS 3 Zrotation Xrotation Yrotation
                    JOINT lRing2
                    {
                      OFFSET 3.7921 -1.552 1.4806
                      CHANNELS 3 Zrotation Xrotation Yrotation
                      JOINT lRing2_End
                      {
                        OFFSET 1.4655 -1.808 0.9609
                        CHANNELS 3 Zrotation Xrotation Yrotation
                        End Site
                        {
                          OFFSET 0.0147 -0.0181 0.0096
                        }
                      }
                    }
                  }
                  JOINT lPinky1
                  {
                    OFFSET 4.9141 -1.269 0.3591
                    CHANNELS 3 Zrotation Xrotation Yrotation
                    JOINT lPinky2
                    {
                      OFFSET 3.1477 -1.685 0.8462
                      CHANNELS 3 Zrotation Xrotation Yrotation
                      JOINT lPinky2_End
                      {
                        OFFSET 0.8055 -1.585 0.7955
                        CHANNELS 3 Zrotation Xrotation Yrotation
                        End Site
                        {
                          OFFSET 0.0081 -0.0158 0.008
                        }
                      }
                    }
                  }
                }
              }
            }
          }
        }
        JOINT rCollar
        {
          OFFSET -1.7069 20.075 5.0056
          CHANNELS 3 Zrotation Xrotation Yrotation
          JOINT rShldr
          {
            OFFSET -13.6458 -0.047 -4.849
            CHANNELS 3 Zrotation Xrotation Yrotation
            JOINT rForeArm
            {
              OFFSET -28.3255 -0.9759 2.2888
              CHANNELS 3 Zrotation Xrotation Yrotation
              JOINT rHand
              {
                OFFSET -22.1583 -0.53 10.8316
                CHANNELS 3 Zrotation Xrotation Yrotation
                JOINT rThumb1
                {
                  OFFSET -0.786 0.112 2.5817
                  CHANNELS 3 Zrotation Xrotation Yrotation
                  JOINT rThumb2
                  {
                    OFFSET -0.3601 -0.878 4.2331
                    CHANNELS 3 Zrotation Xrotation Yrotation
                    JOINT rThumb2_End
                    {
                      OFFSET -1.8127 -1.216 2.2227
                      CHANNELS 3 Zrotation Xrotation Yrotation
                      End Site
                      {
                        OFFSET -0.0181 -0.0122 0.0222
                      }
                    }
                  }
                }
                JOINT rCarpal1
                {
                  OFFSET -0.9571 1.114 1.7695
                  CHANNELS 3 Zrotation Xrotation Yrotation
                  JOINT rIndex1
                  {
                    OFFSET -4.1246 0.487 4.1451
                    CHANNELS 3 Zrotation Xrotation Yrotation
                    JOINT rIndex2
                    {
                      OFFSET -3.4052 -1.454 2.7682
                      CHANNELS 3 Zrotation Xrotation Yrotation
                      JOINT rIndex2_End
                      {
                        OFFSET -1.4531 -1.795 1.2713
                        CHANNELS 3 Zrotation Xrotation Yrotation
                        End Site
                        {
                          OFFSET -0.0145 -0.018 0.0127
                        }
                      }
                    }
                  }
                  JOINT rMid1
                  {
                    OFFSET -5.6954 0.21 2.1184
                    CHANNELS 3 Zrotation Xrotation Yrotation
                    JOINT rMid2
                    {
                      OFFSET -3.9766 -1.54 2.3863
                      CHANNELS 3 Zrotation Xrotation Yrotation
                      JOINT rMid2_End
                      {
                        OFFSET -1.4042 -1.926 1.125
                        CHANNELS 3 Zrotation Xrotation Yrotation
                        End Site
                        {
                          OFFSET -0.014 -0.0193 0.0113
                        }
                      }
                    }
                  }
                }
                JOINT rCarpal2
                {
                  OFFSET -2.0956 0.66 -0.3894
                  CHANNELS 3 Zrotation Xrotation Yrotation
                  JOINT rRing1
                  {
                    OFFSET -5.0395 -0.09 2.4971
                    CHANNELS 3 Zrotation Xrotation Yrotation
                    JOINT rRing2
                    {
                      OFFSET -3.7921 -1.552 1.4806
                      CHANNELS 3 Zrotation Xrotation Yrotation
                      JOINT rRing2_End
                      {
                        OFFSET -1.4655 -1.808 0.9609
                        CHANNELS 3 Zrotation Xrotation Yrotation
                        End Site
                        {
                          OFFSET -0.0147 -0.0181 0.0096
                        }
                      }
                    }
                  }
                  JOINT rPinky1
                  {
                    OFFSET -4.9141 -1.269 0.3592
                    CHANNELS 3 Zrotation Xrotation Yrotation
                    JOINT rPinky2
                    {
                      OFFSET -3.1477 -1.685 0.8462
                      CHANNELS 3 Zrotation Xrotation Yrotation
                      JOINT rPinky2_End
                      {
                        OFFSET -0.8055 -1.585 0.7955
                        CHANNELS 3 Zrotation Xrotation Yrotation
                        End Site
                        {
                          OFFSET -0.0081 -0.0158 0.008
                        }
                      }
                    }
                  }
                }
              }
            }
          }
        }
      }
    }
  }
  JOINT lThigh
  {
    OFFSET 8.367 -8.2066 0.5982
    CHANNELS 3 Zrotation Xrotation Yrotation
    JOINT lShin
    {
      OFFSET 2.1923 -43.463 -0.4932
      CHANNELS 3 Zrotation Xrotation Yrotation
      JOINT lFoot
      {
        OFFSET 0.7333 -45.8593 -2.6451
        CHANNELS 3 Zrotation Xrotation Yrotation
        End Site
        {
          OFFSET 2.6618 -4.2699 12.3931
        }
      }
    }
  }
  JOINT rThigh
  {
    OFFSET -8.367 -8.2066 0.5982
    CHANNELS 3 Zrotation Xrotation Yrotation
    JOINT rShin
    {
      OFFSET -2.1923 -43.463 -0.4931
      CHANNELS 3 Zrotation Xrotation Yrotation
      JOINT rFoot
      {
        OFFSET -0.7333 -45.8593 -2.6451
        CHANNELS 3 Zrotation Xrotation Yrotation
        End Site
        {
          OFFSET -2.6618 -4.2699 12.3931
        }
      }
    }
  }
}
MOTION
Frames:	4
Frame Time:	0.0333333
0 91.7903 2.51682 0 0 -0 0 0 -0 0 0 -0 0 0 -0 0 0 -0 0 0 -0 0 0 -0 1.66051 0.0835086 5.75766 -0.0175111 0.895433 15.7816 7.95139e-016 -1.98785e-016 -0 5.46658e-016 -3.97569e-016 -0 5.96354e-016 0 -0 3.97569e-016 1.98785e-016 9.54166e-015 1.49089e-016 -3.97569e-016 -0 6.4605e-016 0 3.18055e-015 5.96354e-016 0 3.18055e-015 8.94531e-016 -1.98785e-016 6.36111e-015 6.4605e-016 0 3.18055e-015 5.96354e-016 0 3.18055e-015 8.94531e-016 -1.98785e-016 6.36111e-015 1.49089e-016 -3.97569e-016 -0 6.4605e-016 0 3.18055e-015 5.96354e-016 0 3.18055e-015 8.94531e-016 -1.98785e-016 6.36111e-015 6.4605e-016 0 3.18055e-015 5.96354e-016 0 3.18055e-015 8.94531e-016 -1.98785e-016 6.36111e-015 0 0 -0 -1.4496 0.0636048 -5.0245 -1.74811 1.20616 -16.8394 -1.19271e-015 1.98785e-016 -3.18055e-015 -3.97569e-016 1.98785e-016 -3.18055e-015 -2.98177e-016 1.98785e-016 -3.18055e-015 -2.98177e-016 3.97569e-016 -0 4.96962e-016 0 -6.36111e-015 -9.93923e-017 3.97569e-016 -0 -8.94531e-016 5.96354e-016 -0 -3.97569e-016 3.97569e-016 -0 -9.93923e-017 3.97569e-016 -0 -8.94531e-016 5.96354e-016 -0 -3.97569e-016 3.97569e-016 -0 4.96962e-016 0 -6.36111e-015 -9.93923e-017 3.97569e-016 -0 -8.94531e-016 5.96354e-016 -0 -3.97569e-016 3.97569e-016 -0 -9.93923e-017 3.97569e-016 -0 -8.94531e-016 5.96354e-016 -0 -3.97569e-016 3.97569e-016 -0 -4.66111 -0.998717 0.12318 0.00986924 1.54847 0.176523 4.65186 -0.572283 -0.254274 4.66111 -0.998765 -0.123176 -0.00986867 1.54869 -0.176537 -4.65186 -0.572453 0.25427 
1.42638 4.14783 -11.1177 -47.1291 -89.9994 -0.12942 0.0322348 -0.308893 -9.88353 0.0109367 -0.618727 -19.7673 0.01095 -0.618715 -19.7673 -6.67923 18.4668 -18.551 1.49643 -11.2599 0.0473639 -28.3861 -0.712985 2.45504 -43.6023 7.80243 -41.9968 -44.8908 30.7605 8.82831 -22.0099 16.5077 -8.1942 -3.97569e-016 -3.97569e-016 6.36111e-015 -3.97569e-016 -1.98785e-015 1.27222e-014 1.32417e-031 -7.95139e-016 9.54166e-015 -3.97569e-016 7.95139e-016 -0 -3.97569e-016 -7.95139e-016 1.27222e-014 -7.95139e-016 -1.19271e-015 3.18055e-015 -7.95139e-016 -1.59028e-015 -0 -3.97569e-016 -7.95139e-016 1.27222e-014 -7.95139e-016 -1.19271e-015 3.18055e-015 -7.95139e-016 -1.59028e-015 -0 -3.97569e-016 7.95139e-016 -0 -3.97569e-016 -7.95139e-016 1.27222e-014 -7.95139e-016 -1.19271e-015 3.18055e-015 -7.95139e-016 -1.59028e-015 -0 -3.97569e-016 -7.95139e-016 1.27222e-014 -7.95139e-016 -1.19271e-015 3.18055e-015 -7.95139e-016 -1.59028e-015 -0 -21.1581 -5.95031 -1.94405 -29.9828 -5.67459 -1.79632 -76.3828 67.6087 -19.3063 6.49224 2.60875 0.0253947 5.1684e-015 0 3.18055e-015 1.81106e-007 -5.31976e-008 1.36907e-006 -1.98785e-015 0 6.36111e-015 1.98785e-015 -7.95139e-016 3.18055e-015 -7.15625e-015 7.95139e-016 3.18055e-015 1.81106e-007 -5.31976e-008 1.36907e-006 3.97569e-016 3.18055e-015 3.18055e-015 -7.15625e-015 7.95139e-016 3.18055e-015 1.81106e-007 -5.31976e-008 1.36907e-006 3.97569e-016 3.18055e-015 3.18055e-015 1.98785e-015 -7.95139e-016 3.18055e-015 -7.15625e-015 7.95139e-016 3.18055e-015 1.81106e-007 -5.31976e-008 1.36907e-006 3.97569e-016 3.18055e-015 3.18055e-015 -7.15625e-015 7.95139e-016 3.18055e-015 1.81106e-007 -5.31976e-008 1.36907e-006 3.97569e-016 3.18055e-015 3.18055e-015 10.6724 -15.1308 2.91206 -6.39517 13.0682 2.04373 9.39482 13.7688 0.324594 -8.94819 -12.0535 -28.2075 8.42571 57.0925 -10.064 -10.59 28.5627 0.217558 
1.42565 4.14474 -11.1192 -47.1291 -89.9994 -0.12942 0.0322348 -0.308893 -9.88353 0.0109367 -0.618727 -19.7673 0.01095 -0.618715 -19.7673 -6.50103 18.4632 -18.5975 1.92633 -11.2546 0.133753 -28.3861 -0.712984 2.45504 -43.6023 7.80242 -41.9968 -44.1319 30.6133 8.67581 -22.0099 16.5078 -8.19421 -1.96678e-007 8.19239e-008 1.14833e-008 6.8998e-008 -3.35677e-008 1.05036e-006 -1.96678e-007 8.19239e-008 1.14833e-008 3.97569e-016 -1.19271e-015 3.18055e-015 -1.96678e-007 8.19239e-008 1.14833e-008 6.8998e-008 -3.35677e-008 1.05036e-006 -1.96678e-007 8.19239e-008 1.14833e-008 -1.96678e-007 8.19239e-008 1.14833e-008 6.8998e-008 -3.35677e-008 1.05036e-006 -1.96678e-007 8.19239e-008 1.14833e-008 3.97569e-016 -1.19271e-015 3.18055e-015 -1.96678e-007 8.19239e-008 1.14833e-008 6.8998e-008 -3.35677e-008 1.05036e-006 -1.96678e-007 8.19239e-008 1.14833e-008 -1.96678e-007 8.19239e-008 1.14833e-008 6.8998e-008 -3.35677e-008 1.05036e-006 -1.96678e-007 8.19239e-008 1.14833e-008 -21.1581 -5.95031 -1.94405 -29.9828 -5.67459 -1.79634 -76.3828 67.6087 -19.3064 6.49223 2.60876 0.0254003 -1.1821e-007 -4.0104e-007 8.57593e-008 -1.1821e-007 -4.0104e-007 8.57593e-008 -7.95139e-016 -4.77083e-015 -6.36111e-015 -1.59028e-015 -7.95139e-016 3.18055e-015 -1.1821e-007 -4.0104e-007 8.57593e-008 -1.1821e-007 -4.0104e-007 8.57593e-008 -3.18055e-015 -3.18055e-015 -6.36111e-015 -1.1821e-007 -4.0104e-007 8.57593e-008 -1.1821e-007 -4.0104e-007 8.57593e-008 -3.18055e-015 -3.18055e-015 -6.36111e-015 -1.59028e-015 -7.95139e-016 3.18055e-015 -1.1821e-007 -4.0104e-007 8.57593e-008 -1.1821e-007 -4.0104e-007 8.57593e-008 -3.18055e-015 -3.18055e-015 -6.36111e-015 -1.1821e-007 -4.0104e-007 8.57593e-008 -1.1821e-007 -4.0104e-007 8.57593e-008 -3.18055e-015 -3.18055e-015 -6.36111e-015 10.5863 -15.1843 2.57778 -6.39687 13.0874 2.04927 9.40916 13.7449 0.323635 -8.94913 -12.0551 -28.2075 8.42519 57.0912 -10.0634 -10.59 28.566 0.217836 
1.42493 4.14166 -11.1207 -47.1291 -89.9994 -0.12942 0.0322254 -0.308882 -9.88353 0.010936 -0.618729 -19.7673 0.0109489 -0.618717 -19.7673 -6.32318 18.459 -18.6439 2.35659 -11.2486 0.220169 -28.3861 -0.712985 2.45504 -43.6023 7.80241 -41.9968 -43.3728 30.4641 8.52546 -22.0099 16.5077 -8.19421 2.27849e-007 -5.57783e-007 -9.21583e-009 7.95139e-016 2.38542e-015 -0 3.92816e-007 -1.64967e-007 -2.29325e-008 1.19271e-015 1.98785e-015 -3.18055e-015 2.27849e-007 -5.57783e-007 -9.21583e-009 7.95139e-016 7.95139e-016 -0 3.92816e-007 -1.64967e-007 -2.29325e-008 2.27849e-007 -5.57783e-007 -9.21583e-009 7.95139e-016 7.95139e-016 -0 3.92816e-007 -1.64967e-007 -2.29325e-008 1.19271e-015 1.98785e-015 -3.18055e-015 2.27849e-007 -5.57783e-007 -9.21583e-009 7.95139e-016 7.95139e-016 -0 3.92816e-007 -1.64967e-007 -2.29325e-008 2.27849e-007 -5.57783e-007 -9.21583e-009 7.95139e-016 7.95139e-016 -0 3.92816e-007 -1.64967e-007 -2.29325e-008 -21.1581 -5.95031 -1.94405 -29.9828 -5.67458 -1.79633 -76.3832 67.6087 -19.3059 6.49223 2.60876 0.0254089 -1.1821e-007 -4.0104e-007 8.57588e-008 -3.97569e-015 7.95139e-016 -3.18055e-015 8.34896e-015 0 9.54166e-015 -2.38542e-015 3.18055e-015 6.36111e-015 -1.1821e-007 -4.0104e-007 8.57588e-008 -1.59028e-015 -1.59028e-015 3.18055e-015 3.97569e-015 -1.59028e-015 -0 -1.1821e-007 -4.0104e-007 8.57588e-008 -1.59028e-015 -1.59028e-015 3.18055e-015 3.97569e-015 -1.59028e-015 -0 -2.38542e-015 3.18055e-015 6.36111e-015 -1.1821e-007 -4.0104e-007 8.57588e-008 -1.59028e-015 -1.59028e-015 3.18055e-015 3.97569e-015 -1.59028e-015 -0 -1.1821e-007 -4.0104e-007 8.57588e-008 -1.59028e-015 -1.59028e-015 3.18055e-015 3.97569e-015 -1.59028e-015 -0 10.4998 -15.2374 2.24306 -6.3986 13.1067 2.05487 9.42362 13.7211 0.322665 -8.95009 -12.0569 -28.2075 8.4247 57.0901 -10.063 -10.59 28.5692 0.218141 
